{
  "accessors": [
    {
      "bufferView": 0,
      "byteOffset": 0,
      "componentType": 5123,
      "count": 522,
      "type": "SCALAR",
      "max": [
        259
      ],
      "min": [
        0
      ]
    },
    {
      "bufferView": 1,
      "byteOffset": 0,
      "componentType": 5126,
      "count": 260,
      "type": "VEC3",
      "max": [
        0.21279999613761902,
        0.2621634900569916,
        0.05700000002980232
      ],
      "min": [
        -0.21279999613761902,
        0,
        -0.05700000002980232
      ],
      "name": "POSITION"
    },
    {
      "bufferView": 1,
      "byteOffset": 12,
      "componentType": 5126,
      "count": 260,
      "type": "VEC2",
      "max": [
        0.96875,
        0.7250000238418579
      ],
      "min": [
        0.21875,
        0.5249999761581421
      ],
      "name": "TEXCOORD_0"
    },
    {
      "bufferView": 1,
      "byteOffset": 20,
      "componentType": 5126,
      "count": 260,
      "type": "VEC3",
      "max": [
        1.0000044107437134,
        1.0000044107437134,
        1.0000044107437134
      ],
      "min": [
        -1.0000044107437134,
        -0.8660292029380798,
        -1.0000044107437134
      ],
      "name": "NORMAL"
    },
    {
      "bufferView": 0,
      "byteOffset": 1044,
      "componentType": 5123,
      "count": 522,
      "type": "SCALAR",
      "max": [
        259
      ],
      "min": [
        0
      ]
    },
    {
      "bufferView": 2,
      "byteOffset": 0,
      "componentType": 5126,
      "count": 260,
      "type": "VEC3",
      "max": [
        0.21279999613761902,
        0.2621634900569916,
        0.05700000002980232
      ],
      "min": [
        -0.21279999613761902,
        0,
        -0.05700000002980232
      ],
      "name": "POSITION"
    },
    {
      "bufferView": 2,
      "byteOffset": 12,
      "componentType": 5126,
      "count": 260,
      "type": "VEC2",
      "max": [
        0.96875,
        0.7250000238418579
      ],
      "min": [
        0.21875,
        0.5249999761581421
      ],
      "name": "TEXCOORD_0"
    },
    {
      "bufferView": 2,
      "byteOffset": 20,
      "componentType": 5126,
      "count": 260,
      "type": "VEC3",
      "max": [
        1.0000044107437134,
        1.0000044107437134,
        1.0000044107437134
      ],
      "min": [
        -1.0000044107437134,
        -0.8660292029380798,
        -1.0000044107437134
      ],
      "name": "NORMAL"
    }
  ],
  "asset": {
    "generator": "Aspose.3D 24.6.0",
    "version": "2.0"
  },
  "buffers": [
    {
      "uri": "taco_data.bin",
      "byteLength": 18728
    }
  ],
  "bufferViews": [
    {
      "buffer": 0,
      "byteOffset": 0,
      "byteLength": 2088,
      "target": 34963
    },
    {
      "buffer": 0,
      "byteOffset": 2088,
      "byteLength": 8320,
      "byteStride": 32,
      "target": 34962
    },
    {
      "buffer": 0,
      "byteOffset": 10408,
      "byteLength": 8320,
      "byteStride": 32,
      "target": 34962
    }
  ],
  "images": [
    {
      "uri": "taco_img0.png"
    }
  ],
  "materials": [
    {
      "name": "colormap",
      "pbrMetallicRoughness": {
        "baseColorFactor": [
          1,
          1,
          1,
          1
        ],
        "baseColorTexture": {
          "index": 0,
          "texCoord": 0
        },
        "metallicFactor": 1,
        "roughnessFactor": 1
      },
      "emissiveFactor": [
        0,
        0,
        0
      ],
      "alphaMode": "OPAQUE",
      "doubleSided": false
    }
  ],
  "meshes": [
    {
      "primitives": [
        {
          "attributes": {
            "POSITION": 1,
            "TEXCOORD_0": 2,
            "NORMAL": 3
          },
          "indices": 0,
          "material": 0,
          "mode": 4
        }
      ],
      "name": ""
    },
    {
      "primitives": [
        {
          "attributes": {
            "POSITION": 5,
            "TEXCOORD_0": 6,
            "NORMAL": 7
          },
          "indices": 4,
          "material": 0,
          "mode": 4
        }
      ],
      "name": ""
    }
  ],
  "nodes": [
    {
      "mesh": 0,
      "name": "taco"
    },
    {
      "mesh": 1,
      "name": "taco"
    }
  ],
  "samplers": [
    {
      "magFilter": 9729,
      "minFilter": 9729,
      "wrapS": 10497,
      "wrapT": 10497
    }
  ],
  "scene": 0,
  "scenes": [
    {
      "nodes": [
        0,
        1
      ]
    }
  ],
  "textures": [
    {
      "sampler": 0,
      "source": 0,
      "name": ""
    }
  ]
}